<svg version="1.1" id="logo_dnd" xmlns="http://www.w3.org/2000/svg" viewBox="0 0 460 186.83">
	<style type="text/css"> .st0 { display: none; } </style>
	<path d="M102.43,116.69c0-23.28-14.26-37.83-34.04-37.83-21.82,0-33.18,16.01-33.18,40.45s11.35,40.16,33.18,40.16c19.79,0,34.04-14.26,34.04-37.83v-4.95ZM102.14,158.89c-5.82,15.42-21.54,27.94-44.24,27.94C19.79,186.83,0,157.14,0,119.32S19.79,51.51,57.91,51.51c22.7,0,38.42,12.51,44.24,28.23V0h34.92v183.34h-34.92v-24.45Z"/>
	<path d="M190.32,183.34h-34.93V55h34.93v20.95c6.4-14.55,22.7-24.44,41.9-24.44,34.34,0,46.85,23.28,46.85,51.8v80.03h-34.92v-73.04c0-19.79-7.85-31.14-25.03-31.14s-28.81,13.96-28.81,35.5v68.68Z"/>
	<path id="d_x5F_dritta" class="st0" d="M391.19,116.69c0-23.28-14.26-37.83-34.04-37.83-21.82,0-33.18,16.01-33.18,40.45s11.35,40.16,33.18,40.16c19.79,0,34.04-14.26,34.04-37.83v-4.95ZM390.91,158.89c-5.82,15.42-21.54,27.94-44.24,27.94-38.12,0-57.91-29.68-57.91-67.51s19.79-67.81,57.91-67.81c22.7,0,38.42,12.51,44.24,28.23V0h34.92v183.34h-34.92v-24.45Z"/>
	<path id="d_x5F_storta" d="M396.27,118.15c6.69-23.28-4.95-40.16-25.61-40.16-25.9,0-42.49,25.32-42.49,53.84,0,18.04,9.31,27.93,27.07,27.93s33.76-13.1,38.99-33.46l2.04-8.15ZM425.37,0h34.63l-45.69,183.34h-34.63l5.53-22.41c-9.31,15.71-25.9,25.9-46.27,25.9-31.43,0-47.44-20.95-47.44-50.93,0-42.2,27.36-84.39,72.76-84.39,21.53,0,36.96,10.77,41.62,26.77L425.37,0Z"/>
	<path class="r-mark" d="M438.84,183.34c-5.09,0-9.32-3.96-9.32-9.42s4.22-9.42,9.32-9.42,9.37,3.96,9.37,9.42-4.22,9.42-9.37,9.42ZM438.84,166.1c-4.22,0-7.62,3.24-7.62,7.82s3.4,7.82,7.62,7.82,7.67-3.29,7.67-7.82-3.4-7.82-7.67-7.82ZM441,178.81c-.26-.26-.36-.72-.46-1.8-.05-1.13-.51-1.49-1.54-1.49h-1.59v3.29h-2.52v-9.88h4.79c2.52,0,3.81,1.18,3.81,3.09,0,1.44-.93,2.37-2.16,2.57,1.08.21,1.7.77,1.8,1.96.1,1.44.15,1.9.51,2.26h-2.62ZM439.05,173.56c1.18,0,1.8-.36,1.8-1.29,0-.87-.62-1.29-1.8-1.29h-1.65v2.57h1.65Z"/>
</svg>